<?xml version="1.0" encoding="UTF-8" standalone="no"?>
<!DOCTYPE svg PUBLIC "-//W3C//DTD SVG 1.1//EN" "http://www.w3.org/Graphics/SVG/1.1/DTD/svg11.dtd">
<svg width="100%" height="100%" viewBox="0 0 315 32" version="1.1" xmlns="http://www.w3.org/2000/svg" xmlns:xlink="http://www.w3.org/1999/xlink" xml:space="preserve" xmlns:serif="http://www.serif.com/" style="fill-rule:evenodd;clip-rule:evenodd;stroke-linejoin:round;stroke-miterlimit:2;">
    <g id="smit-light-long">
        <g id="logo-light">
            <path id="Digitaalvakmanschap" d="M137.704,28C138.92,28 139.973,27.779 140.864,27.336C141.755,26.893 142.437,26.253 142.912,25.416C143.387,24.579 143.624,23.589 143.624,22.448C143.624,21.307 143.387,20.315 142.912,19.472C142.437,18.629 141.755,17.981 140.864,17.528C139.973,17.075 138.92,16.848 137.704,16.848L134.232,16.848L134.232,28L137.704,28ZM137.704,26.8L135.688,26.8L135.688,18.032L137.704,18.032C139.133,18.032 140.229,18.421 140.992,19.2C141.755,19.979 142.136,21.061 142.136,22.448C142.136,23.824 141.757,24.893 141,25.656C140.243,26.419 139.144,26.8 137.704,26.8ZM146.376,17.808C146.643,17.808 146.869,17.712 147.056,17.52C147.243,17.328 147.336,17.093 147.336,16.816C147.336,16.539 147.243,16.304 147.056,16.112C146.869,15.92 146.643,15.824 146.376,15.824C146.099,15.824 145.864,15.92 145.672,16.112C145.48,16.304 145.384,16.539 145.384,16.816C145.384,17.093 145.48,17.328 145.672,17.52C145.864,17.712 146.099,17.808 146.376,17.808ZM147.08,28L147.08,19.232L145.624,19.232L145.624,28L147.08,28ZM153.8,32.32C154.643,32.32 155.381,32.144 156.016,31.792C156.651,31.44 157.139,30.952 157.48,30.328C157.821,29.704 157.992,28.992 157.992,28.192L157.992,19.232L156.52,19.232L156.52,20.832C156.243,20.331 155.819,19.915 155.248,19.584C154.677,19.253 154.013,19.088 153.256,19.088C152.477,19.088 151.771,19.275 151.136,19.648C150.501,20.021 150.003,20.547 149.64,21.224C149.277,21.901 149.096,22.688 149.096,23.584C149.096,24.469 149.277,25.259 149.64,25.952C150.003,26.645 150.501,27.184 151.136,27.568C151.771,27.952 152.477,28.144 153.256,28.144C154.013,28.144 154.675,27.973 155.24,27.632C155.805,27.291 156.232,26.864 156.52,26.352L156.52,28.192C156.52,29.099 156.267,29.803 155.76,30.304C155.253,30.805 154.6,31.056 153.8,31.056C153.096,31.056 152.493,30.893 151.992,30.568C151.491,30.243 151.16,29.813 151,29.28L149.56,29.28C149.699,30.219 150.152,30.96 150.92,31.504C151.688,32.048 152.648,32.32 153.8,32.32ZM153.544,26.864C153,26.864 152.504,26.733 152.056,26.472C151.608,26.211 151.251,25.832 150.984,25.336C150.717,24.84 150.584,24.256 150.584,23.584C150.584,22.923 150.717,22.347 150.984,21.856C151.251,21.365 151.608,20.992 152.056,20.736C152.504,20.48 153,20.352 153.544,20.352C154.088,20.352 154.587,20.483 155.04,20.744C155.493,21.005 155.853,21.381 156.12,21.872C156.387,22.363 156.52,22.939 156.52,23.6C156.52,24.261 156.387,24.84 156.12,25.336C155.853,25.832 155.493,26.211 155.04,26.472C154.587,26.733 154.088,26.864 153.544,26.864ZM161.288,17.808C161.555,17.808 161.781,17.712 161.968,17.52C162.155,17.328 162.248,17.093 162.248,16.816C162.248,16.539 162.155,16.304 161.968,16.112C161.781,15.92 161.555,15.824 161.288,15.824C161.011,15.824 160.776,15.92 160.584,16.112C160.392,16.304 160.296,16.539 160.296,16.816C160.296,17.093 160.392,17.328 160.584,17.52C160.776,17.712 161.011,17.808 161.288,17.808ZM161.992,28L161.992,19.232L160.536,19.232L160.536,28L161.992,28ZM168.616,28L168.616,26.768L167.544,26.768C167.096,26.768 166.781,26.68 166.6,26.504C166.419,26.328 166.328,26.027 166.328,25.6L166.328,20.432L168.616,20.432L168.616,19.232L166.328,19.232L166.328,17.024L164.872,17.024L164.872,19.232L163.736,19.232L163.736,20.432L164.872,20.432L164.872,25.6C164.872,26.453 165.075,27.067 165.48,27.44C165.885,27.813 166.493,28 167.304,28L168.616,28ZM174.056,28.144C174.813,28.144 175.477,27.976 176.048,27.64C176.619,27.304 177.048,26.88 177.336,26.368L177.336,28L178.808,28L178.808,19.232L177.336,19.232L177.336,20.832C177.059,20.331 176.637,19.915 176.072,19.584C175.507,19.253 174.84,19.088 174.072,19.088C173.293,19.088 172.587,19.275 171.952,19.648C171.317,20.021 170.819,20.547 170.456,21.224C170.093,21.901 169.912,22.688 169.912,23.584C169.912,24.469 170.093,25.259 170.456,25.952C170.819,26.645 171.315,27.184 171.944,27.568C172.573,27.952 173.277,28.144 174.056,28.144ZM174.36,26.864C173.816,26.864 173.32,26.733 172.872,26.472C172.424,26.211 172.067,25.832 171.8,25.336C171.533,24.84 171.4,24.256 171.4,23.584C171.4,22.923 171.533,22.347 171.8,21.856C172.067,21.365 172.424,20.992 172.872,20.736C173.32,20.48 173.816,20.352 174.36,20.352C174.904,20.352 175.403,20.483 175.856,20.744C176.309,21.005 176.669,21.381 176.936,21.872C177.203,22.363 177.336,22.939 177.336,23.6C177.336,24.261 177.203,24.84 176.936,25.336C176.669,25.832 176.309,26.211 175.856,26.472C175.403,26.733 174.904,26.864 174.36,26.864ZM184.952,28.144C185.709,28.144 186.373,27.976 186.944,27.64C187.515,27.304 187.944,26.88 188.232,26.368L188.232,28L189.704,28L189.704,19.232L188.232,19.232L188.232,20.832C187.955,20.331 187.533,19.915 186.968,19.584C186.403,19.253 185.736,19.088 184.968,19.088C184.189,19.088 183.483,19.275 182.848,19.648C182.213,20.021 181.715,20.547 181.352,21.224C180.989,21.901 180.808,22.688 180.808,23.584C180.808,24.469 180.989,25.259 181.352,25.952C181.715,26.645 182.211,27.184 182.84,27.568C183.469,27.952 184.173,28.144 184.952,28.144ZM185.256,26.864C184.712,26.864 184.216,26.733 183.768,26.472C183.32,26.211 182.963,25.832 182.696,25.336C182.429,24.84 182.296,24.256 182.296,23.584C182.296,22.923 182.429,22.347 182.696,21.856C182.963,21.365 183.32,20.992 183.768,20.736C184.216,20.48 184.712,20.352 185.256,20.352C185.8,20.352 186.299,20.483 186.752,20.744C187.205,21.005 187.565,21.381 187.832,21.872C188.099,22.363 188.232,22.939 188.232,23.6C188.232,24.261 188.099,24.84 187.832,25.336C187.565,25.832 187.205,26.211 186.752,26.472C186.299,26.733 185.8,26.864 185.256,26.864ZM193.704,28L193.704,16.16L192.248,16.16L192.248,28L193.704,28ZM204.712,28L208.152,19.232L206.6,19.232L203.88,26.656L201.144,19.232L199.576,19.232L203.016,28L204.712,28ZM213.272,28.144C214.029,28.144 214.693,27.976 215.264,27.64C215.835,27.304 216.264,26.88 216.552,26.368L216.552,28L218.024,28L218.024,19.232L216.552,19.232L216.552,20.832C216.275,20.331 215.853,19.915 215.288,19.584C214.723,19.253 214.056,19.088 213.288,19.088C212.509,19.088 211.803,19.275 211.168,19.648C210.533,20.021 210.035,20.547 209.672,21.224C209.309,21.901 209.128,22.688 209.128,23.584C209.128,24.469 209.309,25.259 209.672,25.952C210.035,26.645 210.531,27.184 211.16,27.568C211.789,27.952 212.493,28.144 213.272,28.144ZM213.576,26.864C213.032,26.864 212.536,26.733 212.088,26.472C211.64,26.211 211.283,25.832 211.016,25.336C210.749,24.84 210.616,24.256 210.616,23.584C210.616,22.923 210.749,22.347 211.016,21.856C211.283,21.365 211.64,20.992 212.088,20.736C212.536,20.48 213.032,20.352 213.576,20.352C214.12,20.352 214.619,20.483 215.072,20.744C215.525,21.005 215.885,21.381 216.152,21.872C216.419,22.363 216.552,22.939 216.552,23.6C216.552,24.261 216.419,24.84 216.152,25.336C215.885,25.832 215.525,26.211 215.072,26.472C214.619,26.733 214.12,26.864 213.576,26.864ZM222.024,28L222.024,24.128L225.464,28L227.448,28L223.304,23.6L227.432,19.232L225.4,19.232L222.024,23.12L222.024,16.16L220.568,16.16L220.568,28L222.024,28ZM230.344,28L230.344,23.168C230.344,22.251 230.568,21.549 231.016,21.064C231.464,20.579 232.067,20.336 232.824,20.336C233.56,20.336 234.144,20.568 234.576,21.032C235.008,21.496 235.224,22.165 235.224,23.04L235.224,28L236.664,28L236.664,23.168C236.664,22.251 236.888,21.549 237.336,21.064C237.784,20.579 238.387,20.336 239.144,20.336C239.88,20.336 240.464,20.568 240.896,21.032C241.328,21.496 241.544,22.165 241.544,23.04L241.544,28L242.984,28L242.984,22.832C242.984,22.021 242.829,21.333 242.52,20.768C242.211,20.203 241.789,19.779 241.256,19.496C240.723,19.213 240.115,19.072 239.432,19.072C238.739,19.072 238.109,19.243 237.544,19.584C236.979,19.925 236.573,20.405 236.328,21.024C236.051,20.384 235.629,19.899 235.064,19.568C234.499,19.237 233.848,19.072 233.112,19.072C232.525,19.072 231.989,19.195 231.504,19.44C231.019,19.685 230.632,20.037 230.344,20.496L230.344,19.232L228.888,19.232L228.888,28L230.344,28ZM249.048,28.144C249.805,28.144 250.469,27.976 251.04,27.64C251.611,27.304 252.04,26.88 252.328,26.368L252.328,28L253.8,28L253.8,19.232L252.328,19.232L252.328,20.832C252.051,20.331 251.629,19.915 251.064,19.584C250.499,19.253 249.832,19.088 249.064,19.088C248.285,19.088 247.579,19.275 246.944,19.648C246.309,20.021 245.811,20.547 245.448,21.224C245.085,21.901 244.904,22.688 244.904,23.584C244.904,24.469 245.085,25.259 245.448,25.952C245.811,26.645 246.307,27.184 246.936,27.568C247.565,27.952 248.269,28.144 249.048,28.144ZM249.352,26.864C248.808,26.864 248.312,26.733 247.864,26.472C247.416,26.211 247.059,25.832 246.792,25.336C246.525,24.84 246.392,24.256 246.392,23.584C246.392,22.923 246.525,22.347 246.792,21.856C247.059,21.365 247.416,20.992 247.864,20.736C248.312,20.48 248.808,20.352 249.352,20.352C249.896,20.352 250.395,20.483 250.848,20.744C251.301,21.005 251.661,21.381 251.928,21.872C252.195,22.363 252.328,22.939 252.328,23.6C252.328,24.261 252.195,24.84 251.928,25.336C251.661,25.832 251.301,26.211 250.848,26.472C250.395,26.733 249.896,26.864 249.352,26.864ZM257.8,28L257.8,23.152C257.8,22.235 258.027,21.536 258.48,21.056C258.933,20.576 259.544,20.336 260.312,20.336C261.069,20.336 261.667,20.568 262.104,21.032C262.541,21.496 262.76,22.165 262.76,23.04L262.76,28L264.2,28L264.2,22.832C264.2,21.616 263.869,20.685 263.208,20.04C262.547,19.395 261.683,19.072 260.616,19.072C260.019,19.072 259.472,19.195 258.976,19.44C258.48,19.685 258.088,20.032 257.8,20.48L257.8,19.232L256.344,19.232L256.344,28L257.8,28ZM269.768,28.144C270.397,28.144 270.955,28.035 271.44,27.816C271.925,27.597 272.301,27.296 272.568,26.912C272.835,26.528 272.968,26.096 272.968,25.616C272.957,25.083 272.811,24.651 272.528,24.32C272.245,23.989 271.907,23.741 271.512,23.576C271.117,23.411 270.605,23.243 269.976,23.072C269.475,22.933 269.083,22.808 268.8,22.696C268.517,22.584 268.283,22.435 268.096,22.248C267.909,22.061 267.816,21.824 267.816,21.536C267.816,21.173 267.971,20.88 268.28,20.656C268.589,20.432 269.005,20.32 269.528,20.32C270.093,20.32 270.544,20.459 270.88,20.736C271.216,21.013 271.4,21.381 271.432,21.84L272.888,21.84C272.845,20.987 272.525,20.315 271.928,19.824C271.331,19.333 270.547,19.088 269.576,19.088C268.947,19.088 268.387,19.197 267.896,19.416C267.405,19.635 267.027,19.931 266.76,20.304C266.493,20.677 266.36,21.088 266.36,21.536C266.36,22.101 266.507,22.557 266.8,22.904C267.093,23.251 267.445,23.512 267.856,23.688C268.267,23.864 268.797,24.037 269.448,24.208C270.163,24.389 270.691,24.573 271.032,24.76C271.373,24.947 271.544,25.232 271.544,25.616C271.544,25.989 271.384,26.299 271.064,26.544C270.744,26.789 270.307,26.912 269.752,26.912C269.155,26.912 268.672,26.773 268.304,26.496C267.936,26.219 267.731,25.861 267.688,25.424L266.184,25.424C266.216,25.957 266.387,26.429 266.696,26.84C267.005,27.251 267.427,27.571 267.96,27.8C268.493,28.029 269.096,28.144 269.768,28.144ZM278.824,28.144C279.88,28.144 280.76,27.875 281.464,27.336C282.168,26.797 282.637,26.08 282.872,25.184L281.304,25.184C281.144,25.739 280.851,26.165 280.424,26.464C279.997,26.763 279.464,26.912 278.824,26.912C277.992,26.912 277.32,26.624 276.808,26.048C276.296,25.472 276.04,24.656 276.04,23.6C276.04,22.555 276.296,21.747 276.808,21.176C277.32,20.605 277.992,20.32 278.824,20.32C279.464,20.32 280,20.475 280.432,20.784C280.864,21.093 281.155,21.515 281.304,22.048L282.872,22.048C282.648,21.12 282.187,20.395 281.488,19.872C280.789,19.349 279.901,19.088 278.824,19.088C277.992,19.088 277.253,19.275 276.608,19.648C275.963,20.021 275.459,20.547 275.096,21.224C274.733,21.901 274.552,22.693 274.552,23.6C274.552,24.517 274.733,25.317 275.096,26C275.459,26.683 275.963,27.211 276.608,27.584C277.253,27.957 277.992,28.144 278.824,28.144ZM286.344,28L286.344,23.152C286.344,22.235 286.571,21.536 287.024,21.056C287.477,20.576 288.088,20.336 288.856,20.336C289.613,20.336 290.211,20.568 290.648,21.032C291.085,21.496 291.304,22.165 291.304,23.04L291.304,28L292.744,28L292.744,22.832C292.744,22.021 292.592,21.333 292.288,20.768C291.984,20.203 291.565,19.779 291.032,19.496C290.499,19.213 289.901,19.072 289.24,19.072C288.611,19.072 288.043,19.195 287.536,19.44C287.029,19.685 286.632,20.032 286.344,20.48L286.344,16.16L284.888,16.16L284.888,28L286.344,28ZM298.808,28.144C299.565,28.144 300.229,27.976 300.8,27.64C301.371,27.304 301.8,26.88 302.088,26.368L302.088,28L303.56,28L303.56,19.232L302.088,19.232L302.088,20.832C301.811,20.331 301.389,19.915 300.824,19.584C300.259,19.253 299.592,19.088 298.824,19.088C298.045,19.088 297.339,19.275 296.704,19.648C296.069,20.021 295.571,20.547 295.208,21.224C294.845,21.901 294.664,22.688 294.664,23.584C294.664,24.469 294.845,25.259 295.208,25.952C295.571,26.645 296.067,27.184 296.696,27.568C297.325,27.952 298.029,28.144 298.808,28.144ZM299.112,26.864C298.568,26.864 298.072,26.733 297.624,26.472C297.176,26.211 296.819,25.832 296.552,25.336C296.285,24.84 296.152,24.256 296.152,23.584C296.152,22.923 296.285,22.347 296.552,21.856C296.819,21.365 297.176,20.992 297.624,20.736C298.072,20.48 298.568,20.352 299.112,20.352C299.656,20.352 300.155,20.483 300.608,20.744C301.061,21.005 301.421,21.381 301.688,21.872C301.955,22.363 302.088,22.939 302.088,23.6C302.088,24.261 301.955,24.84 301.688,25.336C301.421,25.832 301.061,26.211 300.608,26.472C300.155,26.733 299.656,26.864 299.112,26.864ZM307.56,32.16L307.56,26.384C307.859,26.885 308.293,27.304 308.864,27.64C309.435,27.976 310.093,28.144 310.84,28.144C311.619,28.144 312.325,27.952 312.96,27.568C313.595,27.184 314.093,26.645 314.456,25.952C314.819,25.259 315,24.469 315,23.584C315,22.688 314.819,21.901 314.456,21.224C314.093,20.547 313.595,20.021 312.96,19.648C312.325,19.275 311.619,19.088 310.84,19.088C310.083,19.088 309.419,19.256 308.848,19.592C308.277,19.928 307.848,20.347 307.56,20.848L307.56,19.232L306.104,19.232L306.104,32.16L307.56,32.16ZM310.536,26.864C310.003,26.864 309.509,26.733 309.056,26.472C308.603,26.211 308.24,25.832 307.968,25.336C307.696,24.84 307.56,24.261 307.56,23.6C307.56,22.949 307.696,22.376 307.968,21.88C308.24,21.384 308.603,21.005 309.056,20.744C309.509,20.483 310.003,20.352 310.536,20.352C311.08,20.352 311.579,20.48 312.032,20.736C312.485,20.992 312.845,21.365 313.112,21.856C313.379,22.347 313.512,22.923 313.512,23.584C313.512,24.256 313.379,24.84 313.112,25.336C312.845,25.832 312.485,26.211 312.032,26.472C311.579,26.733 311.08,26.864 310.536,26.864Z" style="fill:white;fill-rule:nonzero;"/>
            <g transform="matrix(1,0,0,1,0.076253,0.000465)">
                <g id="Group-Clipped">
                    <g id="Group">
                        <g>
                            <g>
                                <path id="Path" d="M5.491,28.868C3.262,28.341 1.432,27.632 0,26.741L3.08,19.772C4.431,20.555 5.944,21.183 7.619,21.656C9.294,22.129 10.902,22.365 12.442,22.365C13.766,22.365 14.711,22.237 15.279,21.98C15.846,21.724 16.13,21.339 16.13,20.825C16.13,20.231 15.758,19.786 15.015,19.488C14.272,19.191 13.05,18.867 11.348,18.516C9.159,18.057 7.335,17.564 5.876,17.037C4.418,16.51 3.148,15.646 2.067,14.444C0.986,13.242 0.446,11.615 0.446,9.562C0.446,7.779 0.946,6.159 1.945,4.7C2.945,3.241 4.438,2.093 6.423,1.256C8.409,0.419 10.821,0 13.658,0C15.603,0 17.514,0.209 19.392,0.628C21.27,1.047 22.925,1.661 24.357,2.472L21.479,9.4C18.697,7.995 16.062,7.293 13.577,7.293C11.118,7.293 9.889,7.887 9.889,9.076C9.889,9.643 10.253,10.068 10.983,10.352C11.712,10.636 12.915,10.94 14.59,11.264C16.751,11.669 18.575,12.135 20.061,12.662C21.547,13.188 22.837,14.046 23.931,15.234C25.025,16.423 25.572,18.043 25.572,20.096C25.572,21.879 25.073,23.493 24.073,24.938C23.073,26.383 21.581,27.531 19.595,28.382C17.609,29.233 15.198,29.658 12.361,29.658C10.01,29.658 7.72,29.395 5.491,28.868L5.491,28.868Z" style="fill:white;fill-rule:nonzero;"/>
                                <path id="Path1" serif:id="Path" d="M53.739,29.01L53.658,16.084L47.498,26.457L43.283,26.457L37.123,16.53L37.123,29.01L28.409,29.01L28.409,0.648L36.272,0.648L45.512,15.76L54.508,0.648L62.371,0.648L62.453,29.01L53.739,29.01Z" style="fill:white;fill-rule:nonzero;"/>
                                <rect id="Rectangle" x="67.072" y="0.648" width="9.564" height="28.362" style="fill:white;"/>
                                <path id="c" d="M87.416,8.062L79.108,8.062L79.108,0.648L105.289,0.648L105.289,8.062L96.981,8.062L96.981,29.01L87.416,29.01L87.416,8.062Z" style="fill:white;fill-rule:nonzero;"/>
                                <path id="Path2" serif:id="Path" d="M106.363,27.936C105.35,26.95 104.843,25.687 104.843,24.147C104.843,22.608 105.35,21.358 106.363,20.4C107.376,19.441 108.653,18.961 110.193,18.961C111.733,18.961 113.01,19.441 114.023,20.4C115.036,21.358 115.543,22.608 115.543,24.147C115.543,25.687 115.036,26.95 114.023,27.936C113.01,28.922 111.733,29.414 110.193,29.414C108.653,29.414 107.376,28.922 106.363,27.936Z" style="fill:url(#_Linear1);fill-rule:nonzero;"/>
                            </g>
                        </g>
                    </g>
                </g>
            </g>
        </g>
        <g transform="matrix(0.929364,0,0,0.783955,20.4101,5.18702)">
            <path d="M288.229,2.695C287.925,2.695 287.639,2.661 287.371,2.593C287.103,2.525 286.857,2.425 286.633,2.293C286.409,2.161 286.207,2.001 286.027,1.813C285.847,1.625 285.697,1.415 285.577,1.183L286.753,-0.041C286.905,0.175 287.049,0.349 287.185,0.481C287.321,0.613 287.457,0.707 287.593,0.763C287.729,0.819 287.873,0.847 288.025,0.847C288.217,0.847 288.387,0.801 288.535,0.709C288.683,0.617 288.797,0.491 288.877,0.331C288.957,0.171 288.997,-0.009 288.997,-0.209L288.997,-4.037L286.576,-4.037L286.576,-5.825L291.039,-5.825L290.989,0.019C290.989,0.427 290.919,0.795 290.779,1.123C290.639,1.451 290.445,1.731 290.197,1.963C289.949,2.195 289.657,2.375 289.321,2.503C288.985,2.631 288.621,2.695 288.229,2.695Z" style="fill:url(#_Linear2);fill-rule:nonzero;"/>
            <path d="M291.889,2.575L295.213,-5.825L296.953,-5.825L300.253,2.575L298.189,2.575L296.593,-1.685C296.537,-1.853 296.475,-2.033 296.407,-2.225C296.339,-2.417 296.273,-2.617 296.209,-2.825C296.145,-3.033 296.085,-3.233 296.029,-3.425C295.973,-3.617 295.925,-3.797 295.885,-3.965L296.233,-3.977C296.185,-3.777 296.133,-3.581 296.077,-3.389C296.021,-3.197 295.961,-3.005 295.897,-2.813C295.833,-2.621 295.767,-2.431 295.699,-2.243C295.631,-2.055 295.561,-1.861 295.489,-1.661L293.905,2.575L291.889,2.575ZM293.473,0.967L294.121,-0.593L297.961,-0.593L298.609,0.967L293.473,0.967Z" style="fill:url(#_Linear3);fill-rule:nonzero;"/>
            <path d="M300.289,2.575L303.613,-5.825L305.353,-5.825L308.653,2.575L306.589,2.575L304.993,-1.685C304.937,-1.853 304.875,-2.033 304.807,-2.225C304.739,-2.417 304.673,-2.617 304.609,-2.825C304.545,-3.033 304.485,-3.233 304.429,-3.425C304.373,-3.617 304.325,-3.797 304.285,-3.965L304.633,-3.977C304.585,-3.777 304.533,-3.581 304.477,-3.389C304.421,-3.197 304.361,-3.005 304.297,-2.813C304.233,-2.621 304.167,-2.431 304.099,-2.243C304.031,-2.055 303.961,-1.861 303.889,-1.661L302.305,2.575L300.289,2.575ZM301.873,0.967L302.521,-0.593L306.361,-0.593L307.009,0.967L301.873,0.967Z" style="fill:url(#_Linear4);fill-rule:nonzero;"/>
            <path d="M309.733,2.575L309.733,-5.825L313.537,-5.825C314.081,-5.825 314.569,-5.709 315.001,-5.477C315.433,-5.245 315.775,-4.927 316.027,-4.523C316.279,-4.119 316.405,-3.657 316.405,-3.137C316.405,-2.609 316.279,-2.137 316.027,-1.721C315.775,-1.305 315.433,-0.975 315.001,-0.731C314.569,-0.487 314.081,-0.365 313.537,-0.365L311.689,-0.365L311.689,2.575L309.733,2.575ZM314.401,2.575L312.265,-1.229L314.365,-1.529L316.741,2.587L314.401,2.575ZM311.689,-1.961L313.357,-1.961C313.565,-1.961 313.747,-2.007 313.903,-2.099C314.059,-2.191 314.179,-2.317 314.263,-2.477C314.347,-2.637 314.389,-2.821 314.389,-3.029C314.389,-3.245 314.339,-3.433 314.239,-3.593C314.139,-3.753 313.999,-3.879 313.819,-3.971C313.639,-4.063 313.425,-4.109 313.177,-4.109L311.689,-4.109L311.689,-1.961Z" style="fill:url(#_Linear5);fill-rule:nonzero;"/>
        </g>
        <g transform="matrix(0.01588,0,0,0.0151414,263.329,-329.526)">
            <g transform="matrix(55.2979,0,0,55.2979,-6793.57,21605)">
                <path d="M136.696,11.498L136.72,4.999L135.216,4.99L136.035,3.487L137.524,3.506L138.398,3.543L138.398,11.535L136.696,11.498Z" style="fill:url(#_Linear6);fill-rule:nonzero;"/>
            </g>
            <g transform="matrix(55.2979,0,0,55.2979,-6738.27,21605)">
                <path d="M144.721,9.066C144.721,9.482 144.639,9.852 144.475,10.176C144.311,10.5 143.985,10.76 143.705,10.984C143.425,11.208 143.093,11.38 142.709,11.5C142.325,11.62 141.913,11.68 141.473,11.68C141.105,11.68 140.298,11.606 139.926,11.534C139.554,11.462 139.244,11.374 138.996,11.27L139.248,9.83C139.504,9.926 139.774,10.004 140.058,10.064C140.342,10.124 141.061,10.192 141.341,10.192C141.781,10.192 142.229,10.118 142.477,9.942C142.725,9.766 142.849,9.51 142.849,9.174C142.849,8.982 142.805,8.82 142.717,8.688C142.629,8.556 142.511,8.45 142.363,8.37C142.215,8.29 141.939,8.22 141.743,8.188C141.547,8.156 140.904,8.102 140.688,8.102L139.44,8.102L139.869,3.458L144.696,3.447L144.177,4.994L141.681,4.994L141.524,6.506C141.524,6.506 142.51,6.57 142.842,6.674C143.174,6.778 143.565,7.066 143.813,7.27C144.061,7.474 144.257,7.724 144.401,8.02C144.545,8.316 144.721,8.674 144.721,9.066Z" style="fill:url(#_Linear7);fill-rule:nonzero;"/>
            </g>
        </g>
    </g>
    <defs>
        <linearGradient id="_Linear1" x1="0" y1="0" x2="1" y2="0" gradientUnits="userSpaceOnUse" gradientTransform="matrix(-10.6992,9.97813,-9.97813,-10.6992,115.543,19.1988)"><stop offset="0" style="stop-color:rgb(247,0,81);stop-opacity:1"/><stop offset="1" style="stop-color:rgb(237,0,40);stop-opacity:1"/></linearGradient>
        <linearGradient id="_Linear2" x1="0" y1="0" x2="1" y2="0" gradientUnits="userSpaceOnUse" gradientTransform="matrix(31.164,0,0,8.52,285.577,-1.56483)"><stop offset="0" style="stop-color:rgb(230,18,77);stop-opacity:1"/><stop offset="1" style="stop-color:rgb(240,10,49);stop-opacity:1"/></linearGradient>
        <linearGradient id="_Linear3" x1="0" y1="0" x2="1" y2="0" gradientUnits="userSpaceOnUse" gradientTransform="matrix(31.164,0,0,8.52,285.577,-1.56483)"><stop offset="0" style="stop-color:rgb(230,18,77);stop-opacity:1"/><stop offset="1" style="stop-color:rgb(240,10,49);stop-opacity:1"/></linearGradient>
        <linearGradient id="_Linear4" x1="0" y1="0" x2="1" y2="0" gradientUnits="userSpaceOnUse" gradientTransform="matrix(31.164,0,0,8.52,285.577,-1.56483)"><stop offset="0" style="stop-color:rgb(230,18,77);stop-opacity:1"/><stop offset="1" style="stop-color:rgb(240,10,49);stop-opacity:1"/></linearGradient>
        <linearGradient id="_Linear5" x1="0" y1="0" x2="1" y2="0" gradientUnits="userSpaceOnUse" gradientTransform="matrix(31.164,0,0,8.52,285.577,-1.56483)"><stop offset="0" style="stop-color:rgb(230,18,77);stop-opacity:1"/><stop offset="1" style="stop-color:rgb(240,10,49);stop-opacity:1"/></linearGradient>
        <linearGradient id="_Linear6" x1="0" y1="0" x2="1" y2="0" gradientUnits="userSpaceOnUse" gradientTransform="matrix(9.50562,0,0,8.23265,135.216,7.56326)"><stop offset="0" style="stop-color:rgb(229,17,57);stop-opacity:1"/><stop offset="1" style="stop-color:rgb(230,18,82);stop-opacity:1"/></linearGradient>
        <linearGradient id="_Linear7" x1="0" y1="0" x2="1" y2="0" gradientUnits="userSpaceOnUse" gradientTransform="matrix(9.50562,0,0,8.23265,135.216,7.56326)"><stop offset="0" style="stop-color:rgb(229,17,57);stop-opacity:1"/><stop offset="1" style="stop-color:rgb(230,18,82);stop-opacity:1"/></linearGradient>
    </defs>
</svg>
